<svg width="1144" height="1210" viewBox="0 0 1144 1210" fill="none" xmlns="http://www.w3.org/2000/svg">
<path d="M1643.22 695.273L993.767 1344.13C807.957 1530.12 662.892 1530.12 476.731 1344.13L179.927 1047.25C231.911 1075.32 289.867 1090.76 348.877 1091.47C373.815 1091.47 398.754 1088.66 423.341 1083.39C523.095 1062.34 625.309 998.47 735.249 888.983L1095.28 529.988C1212.59 412.429 1314.46 358.036 1414.91 358.036C1515.37 358.036 1615.83 411.727 1734.9 529.988L1772.13 565.081L1643.22 695.273ZM142.343 956.711C121.971 942.323 68.2298 894.246 65.7711 846.872C65.7711 842.31 65.7711 795.286 129.347 731.067L245.961 611.753C303.917 553.5 398.051 553.5 456.007 611.052C456.007 611.052 456.358 611.402 456.71 611.753L692.748 847.925C487.268 1052.86 316.211 1086.55 140.587 957.062H142.343V956.711ZM1813.93 527.532L1775.29 488.93C1646.39 359.791 1531.53 299.783 1414.91 299.783C1298.3 299.783 1183.79 359.791 1053.83 488.229L734.898 806.867L498.859 570.695C417.721 489.632 286.355 489.632 205.216 570.695L60.8536 715.977C-20.2845 797.041 -20.2845 928.286 60.8536 1009.35L436.337 1384.49C541.712 1489.76 638.305 1541.7 735.249 1541.7C832.193 1541.7 929.489 1489.06 1034.51 1384.49L1683.62 735.629L1813.93 605.437C1835.36 584.03 1835.36 549.289 1813.93 527.883V527.532ZM735.249 470.682C922.815 470.682 1074.55 319.435 1074.91 132.042C1075.26 -55.3512 923.518 -207.301 735.952 -207.301C548.385 -207.301 396.646 -56.053 396.295 131.34C396.295 318.733 547.683 470.331 735.249 470.682Z" fill="white" fill-opacity="0.2"/>
</svg>
