<svg width="30" height="30" viewBox="0 0 30 30" fill="none" xmlns="http://www.w3.org/2000/svg">
<path fill-rule="evenodd" clip-rule="evenodd" d="M15 30C23.2843 30 30 23.2843 30 15C30 6.71573 23.2843 0 15 0C6.71573 0 0 6.71573 0 15C0 23.2843 6.71573 30 15 30ZM22.5001 12.6213C23.0859 12.0355 23.0859 11.0858 22.5001 10.5C21.9144 9.91419 20.9646 9.91419 20.3788 10.5L12.5242 18.3546L9.07836 14.3345C8.53923 13.7055 7.59228 13.6326 6.96329 14.1718C6.3343 14.7109 6.26146 15.6578 6.8006 16.2868L11.3006 21.5368C11.5725 21.8541 11.9644 22.0435 12.3819 22.0595C12.7994 22.0756 13.2047 21.9167 13.5001 21.6213L22.5001 12.6213Z" fill="white"/>
</svg>
