<svg width="288" height="58" viewBox="0 0 288 58" fill="none" xmlns="http://www.w3.org/2000/svg">
<path d="M212.306 49.5497C211.869 49.3886 211.432 49.239 210.983 49.1124C210.339 48.9283 209.614 48.6982 209.614 48.2033C209.614 47.7085 210.017 47.5244 210.764 47.5244C211.6 47.6117 212.396 47.9261 213.066 48.4335L214.056 46.6499C213.034 45.8588 211.768 45.4515 210.477 45.4992C208.521 45.4992 206.933 46.6499 206.933 48.4335C206.91 48.9565 207.052 49.4733 207.339 49.9111C207.626 50.3489 208.043 50.6853 208.532 50.873C208.959 51.0582 209.402 51.2045 209.855 51.3103C210.189 51.4253 211.558 51.7245 211.558 52.3344C211.558 52.9443 211.029 53.1284 210.27 53.1284C209.255 53.0297 208.293 52.6288 207.508 51.9777L206.357 53.7843C207.446 54.751 208.86 55.2691 210.316 55.2342C211.335 55.2871 212.343 54.9997 213.181 54.4172C213.539 54.1499 213.829 53.8025 214.029 53.4029C214.229 53.0033 214.333 52.5625 214.332 52.1158C214.343 51.7658 214.281 51.4174 214.15 51.0925C214.019 50.7677 213.822 50.4735 213.572 50.2286C213.199 49.9206 212.769 49.6899 212.306 49.5497ZM202.928 49.3656C202.928 48.8681 202.731 48.391 202.379 48.0393C202.027 47.6875 201.55 47.4899 201.052 47.4899C200.799 47.4807 200.546 47.5221 200.308 47.6118C200.071 47.7015 199.853 47.8377 199.669 48.0123C199.485 48.187 199.337 48.3966 199.235 48.6289C199.133 48.8613 199.078 49.1117 199.073 49.3656H202.928ZM205.759 50.079V51.0801H199.073C199.12 51.6452 199.388 52.1688 199.819 52.5373C200.25 52.9057 200.809 53.0892 201.375 53.0478H201.455C202.458 53.025 203.433 52.7134 204.263 52.1503L205.414 53.7268C204.202 54.7853 202.624 55.3265 201.018 55.2342C199.802 55.3328 198.596 54.9446 197.666 54.1549C196.736 53.3652 196.158 52.2386 196.058 51.0226C196.041 50.8081 196.041 50.5926 196.058 50.3782C196.038 49.7563 196.142 49.1366 196.363 48.555C196.584 47.9734 196.919 47.4414 197.347 46.9898C197.775 46.5382 198.288 46.176 198.857 45.9241C199.426 45.6722 200.039 45.5356 200.661 45.5222H201.133C201.709 45.4831 202.287 45.5583 202.834 45.7432C203.381 45.9282 203.886 46.2193 204.32 46.5999C204.754 46.9806 205.109 47.4432 205.364 47.9612C205.618 48.4793 205.768 49.0425 205.805 49.6187C205.805 49.7683 205.805 49.9179 205.805 50.0675L205.759 50.079ZM191.502 55.0271H194.528V41.955H191.502V55.0156V55.0271ZM186.531 50.919L185.035 51.0111C184.114 51.0111 183.562 51.4484 183.562 52.1618C183.562 52.8752 184.149 53.3125 184.989 53.3125C185.296 53.3118 185.599 53.2334 185.869 53.0845C186.138 52.9357 186.366 52.7212 186.531 52.461V50.919ZM188.429 46.6039C188.84 47.0135 189.155 47.508 189.354 48.0527C189.553 48.5975 189.63 49.1791 189.58 49.7568V55.0271H186.646V54.0835C186.311 54.4579 185.899 54.7548 185.438 54.9536C184.977 55.1523 184.478 55.2481 183.976 55.2342C183.174 55.308 182.375 55.0614 181.754 54.5482C181.133 54.0351 180.741 53.2972 180.662 52.4955C180.657 52.3997 180.657 52.3036 180.662 52.2078C180.662 50.125 182.572 49.4346 184.298 49.3541L186.6 49.262V49.0549C186.6 48.0653 185.898 47.5589 184.689 47.5589C183.68 47.5893 182.694 47.8743 181.824 48.3875L181.03 46.4197C182.273 45.8088 183.638 45.4863 185.023 45.4762C186.263 45.3888 187.487 45.7941 188.429 46.6039ZM177.981 42.001L175.679 50.804L173.309 42.001H170.305L168.004 50.804L165.703 42.001H162.504L166.289 55.0616H169.373L171.824 46.0285L174.298 54.9925H177.382L181.18 41.9205L177.981 42.001ZM156.497 49.7453C156.485 49.0645 156.208 48.4153 155.724 47.936C155.24 47.4566 154.589 47.1851 153.908 47.1792C153.217 47.176 152.552 47.4444 152.057 47.9265C151.562 48.4087 151.276 49.066 151.261 49.7568L156.497 49.7453ZM158.211 50.1596C158.211 50.4242 158.211 50.6889 158.154 50.9535H151.25C151.237 51.3172 151.297 51.6797 151.425 52.0202C151.554 52.3607 151.748 52.6726 151.997 52.9377C152.246 53.2029 152.545 53.4163 152.877 53.5655C153.209 53.7147 153.567 53.7969 153.931 53.8073C154.019 53.8131 154.107 53.8131 154.195 53.8073C155.27 53.7867 156.31 53.4239 157.164 52.7717L157.924 53.8073C157.392 54.3141 156.76 54.703 156.068 54.9489C155.376 55.1948 154.64 55.292 153.908 55.2342C153.333 55.2542 152.761 55.1608 152.223 54.9593C151.684 54.7578 151.191 54.4522 150.771 54.06C150.351 53.6678 150.013 53.1966 149.775 52.6735C149.537 52.1503 149.405 51.5854 149.386 51.0111C149.386 50.85 149.386 50.6774 149.386 50.5163C149.367 49.9299 149.464 49.3456 149.672 48.7969C149.879 48.2481 150.193 47.7456 150.595 47.3182C150.997 46.8907 151.479 46.5466 152.014 46.3056C152.549 46.0645 153.126 45.9313 153.712 45.9134H153.988C155.076 45.873 156.136 46.2659 156.934 47.006C157.732 47.746 158.204 48.7726 158.246 49.8604C158.246 49.987 158.246 50.102 158.246 50.2171L158.211 50.1596ZM145.784 47.4094V46.0285H143.966V55.0271H145.784V50.5393C145.727 49.7336 145.92 48.9302 146.336 48.2379C146.506 48.0063 146.728 47.8172 146.984 47.6855C147.239 47.5537 147.522 47.4828 147.809 47.4784C148.149 47.4696 148.487 47.5364 148.799 47.674H148.868L148.983 45.9825C148.68 45.875 148.36 45.8243 148.039 45.8329C147.544 45.8176 147.056 45.9628 146.65 46.2469C146.244 46.531 145.94 46.9387 145.784 47.4094ZM139.8 50.7004L137.706 50.8385C136.244 50.919 135.657 51.5404 135.657 52.3919C135.657 53.2435 136.325 53.9454 137.51 53.9454C137.973 53.9351 138.425 53.8097 138.827 53.5807C139.229 53.3517 139.567 53.0262 139.812 52.6336V50.7004H139.8ZM140.64 46.88C140.997 47.2698 141.268 47.7306 141.435 48.2324C141.601 48.7341 141.66 49.2654 141.607 49.7913V55.0156H139.846V53.8649C139.495 54.2972 139.051 54.6449 138.547 54.882C138.043 55.1191 137.492 55.2395 136.935 55.2342C136.56 55.2673 136.182 55.2259 135.823 55.1123C135.464 54.9987 135.131 54.8153 134.843 54.5725C134.556 54.3297 134.319 54.0323 134.146 53.6976C133.974 53.3629 133.87 52.9973 133.839 52.6221C133.834 52.5647 133.834 52.5069 133.839 52.4495C133.839 50.6889 135.278 49.7913 137.361 49.6993L139.766 49.6072V49.2505C139.778 48.9905 139.739 48.7306 139.651 48.4858C139.563 48.2409 139.427 48.0158 139.252 47.8234C139.076 47.631 138.865 47.4751 138.629 47.3645C138.393 47.254 138.138 47.191 137.878 47.1792H137.556C136.598 47.1996 135.662 47.4693 134.84 47.9617L134.3 46.7419C135.324 46.1569 136.48 45.844 137.66 45.8329C138.202 45.7935 138.746 45.8661 139.259 46.0463C139.772 46.2264 140.242 46.5102 140.64 46.88ZM128.235 53.5657C126.98 53.5967 125.762 53.1305 124.849 52.2684C123.935 51.4064 123.398 50.2183 123.356 48.9628C123.356 48.8132 123.356 48.6636 123.356 48.514C123.305 47.8902 123.377 47.2622 123.569 46.6663C123.761 46.0705 124.069 45.5186 124.476 45.0425C124.882 44.5665 125.379 44.1756 125.937 43.8926C126.496 43.6095 127.105 43.4398 127.729 43.3934H128.189C128.895 43.388 129.594 43.526 130.245 43.799C130.896 44.0719 131.485 44.4742 131.975 44.9813L132.746 43.5084C131.772 42.6383 130.567 42.0677 129.277 41.8651C127.987 41.6624 126.665 41.8364 125.471 42.366C124.277 42.8956 123.261 43.7584 122.545 44.8509C121.829 45.9435 121.444 47.2193 121.435 48.5255C121.363 50.2331 121.973 51.8991 123.129 53.1572C124.286 54.4154 125.895 55.1625 127.603 55.2342C127.786 55.2457 127.971 55.2457 128.155 55.2342C129.043 55.2776 129.931 55.1271 130.755 54.7933C131.58 54.4595 132.322 53.9503 132.93 53.301L132.136 51.9662C131.635 52.4915 131.028 52.9053 130.356 53.1809C129.684 53.4565 128.961 53.5876 128.235 53.5657ZM113.921 55.0271H115.716V41.955H113.921V55.0156V55.0271ZM109.697 50.7004L107.592 50.8385C106.142 50.919 105.555 51.5404 105.555 52.3919C105.555 53.2435 106.211 53.9454 107.407 53.9454C107.869 53.932 108.321 53.8054 108.722 53.5766C109.123 53.3479 109.462 53.0241 109.709 52.6336V50.7004H109.697ZM110.468 46.88C110.829 47.2677 111.101 47.7283 111.268 48.2306C111.435 48.7329 111.492 49.2651 111.435 49.7913V55.0156H109.674V53.8649C109.326 54.2921 108.888 54.6366 108.39 54.8734C107.893 55.1102 107.349 55.2335 106.798 55.2342C106.044 55.298 105.296 55.0598 104.717 54.5722C104.139 54.0846 103.778 53.3873 103.714 52.6336C103.708 52.5724 103.708 52.5107 103.714 52.4495C103.714 50.6889 105.152 49.7913 107.166 49.6993L109.571 49.6072V49.2505C109.585 48.992 109.548 48.7333 109.461 48.4892C109.375 48.2451 109.242 48.0204 109.069 47.828C108.895 47.6356 108.686 47.4793 108.452 47.3679C108.219 47.2566 107.965 47.1925 107.707 47.1792H107.384C106.44 47.2134 105.521 47.4909 104.715 47.9847L104.162 46.765C105.19 46.178 106.351 45.865 107.534 45.8559C108.067 45.815 108.603 45.8849 109.108 46.0611C109.613 46.2374 110.076 46.5162 110.468 46.88ZM100.964 41.955C100.736 41.955 100.513 42.0225 100.324 42.1489C100.135 42.2753 99.9875 42.4551 99.9004 42.6653C99.8133 42.8756 99.7905 43.107 99.8349 43.3302C99.8793 43.5534 99.9889 43.7584 100.15 43.9194C100.311 44.0803 100.516 44.1899 100.739 44.2343C100.962 44.2787 101.194 44.2559 101.404 44.1688C101.614 44.0817 101.794 43.9342 101.92 43.745C102.047 43.5558 102.114 43.3333 102.114 43.1057C102.114 42.8005 101.993 42.5078 101.777 42.292C101.561 42.0762 101.269 41.955 100.964 41.955ZM100.112 55.0156H101.93V46.0285H100.112V55.0156ZM95.2099 53.6807C94.4202 53.6132 93.6846 53.2518 93.1486 52.6679C92.6125 52.0841 92.3151 51.3204 92.3151 50.5278C92.3151 49.7352 92.6125 48.9715 93.1486 48.3876C93.6846 47.8038 94.4202 47.4424 95.2099 47.3748C95.7085 47.3588 96.2049 47.4478 96.6668 47.6362C97.1288 47.8245 97.5459 48.1079 97.8911 48.468L98.4665 47.1792C98.0205 46.7248 97.4801 46.3739 96.8836 46.1512C96.2871 45.9285 95.649 45.8395 95.0143 45.8904C93.8537 45.9936 92.773 46.5248 91.9822 47.3805C91.1914 48.2363 90.7471 49.3555 90.7356 50.5206C90.7241 51.6857 91.1463 52.8135 91.9201 53.6847C92.6939 54.5558 93.7639 55.1081 94.9223 55.2342C95.5868 55.2902 96.2555 55.1963 96.8789 54.9592C97.5023 54.7222 98.0645 54.3482 98.524 53.8649L97.8796 52.5415C97.5281 52.9099 97.1046 53.2021 96.6355 53.4001C96.1664 53.598 95.6616 53.6975 95.1524 53.6922L95.2099 53.6807ZM87.3161 50.4933C87.2669 49.9253 87.0533 49.384 86.7015 48.9354C86.3496 48.4869 85.8748 48.1506 85.3349 47.9675C84.795 47.7845 84.2135 47.7626 83.6614 47.9047C83.1093 48.0468 82.6105 48.3466 82.2261 48.7676C81.8416 49.1885 81.5881 49.7123 81.4965 50.275C81.4049 50.8376 81.4792 51.4148 81.7103 51.9359C81.9414 52.4571 82.3192 52.8996 82.7978 53.2095C83.2763 53.5193 83.8347 53.6831 84.4048 53.6807C84.7871 53.6747 85.1645 53.5935 85.5154 53.4416C85.8663 53.2897 86.1839 53.0702 86.45 52.7956C86.7161 52.521 86.9254 52.1966 87.0661 51.8411C87.2068 51.4855 87.2761 51.1057 87.27 50.7234C87.2758 50.6468 87.2758 50.5699 87.27 50.4933H87.3161ZM89.1572 50.4933C89.1708 51.4353 88.9047 52.3603 88.3926 53.1511C87.8805 53.942 87.1454 54.5632 86.2802 54.9363C85.415 55.3094 84.4587 55.4176 83.532 55.2472C82.6054 55.0767 81.7501 54.6354 81.0743 53.9789C80.3985 53.3224 79.9325 52.4802 79.7353 51.5589C79.5381 50.6376 79.6185 49.6785 79.9664 48.8029C80.3142 47.9273 80.9139 47.1745 81.6896 46.6397C82.4653 46.1049 83.3821 45.8121 84.3242 45.7984H84.4048C85.0093 45.7784 85.6118 45.8778 86.1779 46.0908C86.744 46.3039 87.2626 46.6264 87.704 47.04C88.1453 47.4536 88.5009 47.9501 88.7502 48.5012C88.9996 49.0522 89.1379 49.6471 89.1572 50.2516V50.4933ZM75.947 48.1343L73.5651 47.1792C72.7711 46.857 71.885 46.3967 71.885 45.1885C71.885 43.9802 72.8746 43.3704 74.1864 43.3704C74.7436 43.3842 75.2914 43.5166 75.7933 43.7586C76.2953 44.0007 76.74 44.3469 77.0977 44.7742L78.0643 43.5199C77.5912 42.9963 77.0145 42.5766 76.3708 42.2874C75.727 41.9982 75.0302 41.8458 74.3245 41.8399C73.2369 41.7955 72.1687 42.1379 71.3097 42.8065C70.9446 43.1138 70.6522 43.4981 70.4532 43.9318C70.2543 44.3656 70.1538 44.8379 70.1589 45.3151C70.1398 45.7361 70.2054 46.1567 70.3516 46.552C70.4979 46.9473 70.7219 47.3093 71.0105 47.6165C71.384 48.0054 71.8295 48.318 72.3223 48.5371C72.8171 48.7902 73.7262 49.1469 74.4051 49.4116C75.084 49.6763 76.5224 50.2056 76.5224 51.5749C76.5091 51.8773 76.4363 52.174 76.3082 52.4482C76.18 52.7223 75.9991 52.9685 75.7757 53.1727C75.5523 53.3768 75.2909 53.5349 75.0063 53.6379C74.7218 53.7409 74.4197 53.7867 74.1174 53.7728H73.9678C73.2777 53.7358 72.6059 53.5375 72.0063 53.1938C71.4068 52.85 70.8962 52.3704 70.5157 51.7936L69.434 53.0248C69.926 53.6848 70.5597 54.2259 71.2887 54.6082C72.0176 54.9906 72.823 55.2045 73.6456 55.2342C74.7997 55.2832 75.9336 54.9202 76.8446 54.2101C77.2762 53.8766 77.6267 53.4497 77.8698 52.9614C78.113 52.4732 78.2424 51.9362 78.2484 51.3908C78.2573 50.5864 77.9754 49.8059 77.4545 49.193C77.0256 48.7454 76.5136 48.3858 75.947 48.1343ZM284.882 22.4504V27.41C284.882 28.6412 284.387 29.4928 283.305 29.4928C282.224 29.4928 281.925 28.7678 281.925 27.6746V22.4504H278.898V28.1004C278.82 29.0811 279.058 30.0611 279.577 30.8966C279.898 31.2871 280.308 31.5952 280.773 31.7954C281.237 31.9955 281.742 32.0819 282.247 32.0473C282.769 32.0595 283.287 31.9505 283.76 31.7289C284.233 31.5073 284.649 31.1791 284.974 30.7701V31.8402H287.885V22.4619H284.882V22.4504ZM274.675 23.7852V22.4504H271.649V31.7827H274.675V27.6171C274.625 26.9339 274.794 26.2525 275.158 25.6724C275.321 25.4579 275.532 25.2847 275.774 25.1667C276.015 25.0488 276.282 24.9894 276.551 24.9935C276.946 24.9791 277.339 25.0538 277.701 25.2121H277.828L278.001 22.4274C277.7 22.3107 277.379 22.2559 277.057 22.2663C276.552 22.2444 276.053 22.3785 275.627 22.6502C275.2 22.9219 274.868 23.3182 274.675 23.7852ZM266.459 22.2893C265.857 22.2645 265.26 22.4115 264.739 22.713C264.217 23.0146 263.792 23.4583 263.513 23.9924C263.308 23.439 262.924 22.9704 262.421 22.6616C261.918 22.3528 261.326 22.2217 260.74 22.2893C260.218 22.2951 259.706 22.4359 259.254 22.698C258.803 22.9601 258.426 23.3347 258.162 23.7852V22.4504H255.136V31.7827H258.162V26.9957C258.162 25.7069 258.623 24.7633 259.681 24.7633C260.74 24.7633 260.924 25.5573 260.924 26.7195V31.7942H263.962V26.9957C263.962 25.7069 264.411 24.7633 265.469 24.7633C266.528 24.7633 266.701 25.7069 266.701 26.7195V31.7942H269.75V26.1672C269.75 23.8658 268.898 22.2893 266.517 22.2893H266.459ZM248.98 28.4571L246.862 22.4504H243.698L247.403 31.5065L247.058 32.3235C247.011 32.5203 246.891 32.6917 246.722 32.803C246.553 32.9142 246.348 32.9567 246.149 32.9219C245.755 32.8992 245.368 32.8178 244.998 32.6802L244.4 34.9126C245.226 35.2266 246.105 35.3789 246.989 35.3614C248.577 35.3614 249.29 34.3488 250.015 32.6802L254.181 22.4504H251.085L248.98 28.4571ZM239.21 29.2281C238.715 29.2497 238.22 29.1732 237.755 29.0031C237.289 28.833 236.862 28.5726 236.497 28.2369C236.133 27.9011 235.838 27.4967 235.63 27.0467C235.422 26.5967 235.305 26.1101 235.286 25.6149C235.275 25.4847 235.275 25.3538 235.286 25.2236C235.213 24.2325 235.535 23.2527 236.182 22.4981C236.829 21.7435 237.748 21.2755 238.738 21.1961C238.888 21.1846 239.038 21.1846 239.187 21.1961C240.443 21.2157 241.645 21.7041 242.559 22.5655L243.502 20.0224C242.251 18.9739 240.644 18.4465 239.014 18.5495C237.295 18.4553 235.609 19.0469 234.325 20.1946C233.042 21.3422 232.266 22.9522 232.168 24.6713C232.156 24.8898 232.156 25.1087 232.168 25.3272C232.131 26.1751 232.261 27.022 232.552 27.8195C232.842 28.6169 233.287 29.3492 233.861 29.9745C234.435 30.5997 235.127 31.1056 235.897 31.4633C236.666 31.821 237.499 32.0233 238.347 32.0588H239.014C239.881 32.1094 240.749 31.9778 241.561 31.6726C242.374 31.3674 243.113 30.8953 243.732 30.2868L242.708 27.8933C242.244 28.3378 241.695 28.6849 241.094 28.9141C240.493 29.1434 239.853 29.2501 239.21 29.2281ZM224.769 31.7827H226.564V18.7221H224.769V31.7827ZM220.937 27.2604C220.973 26.8752 220.934 26.4865 220.819 26.1168C220.705 25.7471 220.519 25.4036 220.272 25.1061C220.024 24.8086 219.72 24.563 219.378 24.3834C219.035 24.2038 218.66 24.0937 218.275 24.0596C217.889 24.0254 217.501 24.0679 217.132 24.1844C216.763 24.301 216.421 24.4894 216.125 24.7387C215.829 24.9881 215.585 25.2935 215.408 25.6374C215.23 25.9813 215.123 26.3569 215.091 26.7426C215.08 26.915 215.08 27.088 215.091 27.2604C215.055 27.6456 215.094 28.0342 215.209 28.404C215.323 28.7737 215.509 29.1172 215.756 29.4147C216.004 29.7122 216.308 29.9578 216.65 30.1374C216.993 30.317 217.368 30.427 217.753 30.4612C218.139 30.4953 218.527 30.4529 218.896 30.3363C219.265 30.2198 219.607 30.0314 219.903 29.782C220.199 29.5327 220.443 29.2272 220.62 28.8833C220.798 28.5394 220.905 28.1638 220.937 27.7782C220.948 27.6058 220.948 27.4328 220.937 27.2604ZM222.778 27.2604C222.791 28.2025 222.525 29.1274 222.013 29.9183C221.501 30.7091 220.766 31.3304 219.901 31.7034C219.036 32.0765 218.079 32.1847 217.153 32.0143C216.226 31.8439 215.371 31.4025 214.695 30.746C214.019 30.0895 213.553 29.2474 213.356 28.326C213.159 27.4047 213.239 26.4456 213.587 25.57C213.935 24.6944 214.535 23.9416 215.31 23.4068C216.086 22.872 217.003 22.5792 217.945 22.5655H218.026C218.63 22.5455 219.233 22.6449 219.799 22.8579C220.365 23.071 220.883 23.3935 221.325 23.8071C221.766 24.2207 222.122 24.7172 222.371 25.2683C222.62 25.8194 222.759 26.4142 222.778 27.0187V27.2604ZM208.67 30.5629C208.164 30.5417 207.668 30.4163 207.212 30.1945C206.757 29.9727 206.352 29.6594 206.024 29.2741L205.149 30.3328C205.563 30.8469 206.09 31.2594 206.688 31.5387C207.287 31.8179 207.941 31.9565 208.601 31.9438C209.501 31.9808 210.385 31.6996 211.098 31.1498C211.4 30.9022 211.64 30.5889 211.802 30.2338C211.964 29.8788 212.042 29.4914 212.03 29.1015C212.031 28.7896 211.968 28.4808 211.845 28.194C211.722 27.9071 211.543 27.6482 211.317 27.433C211.008 27.1584 210.654 26.9403 210.27 26.7886C209.89 26.639 209.545 26.5239 209.119 26.3513C208.221 26.0751 207.358 25.7529 207.358 25.0165C207.358 24.28 207.922 23.8658 208.797 23.8658C209.659 23.8714 210.485 24.2142 211.098 24.8209L211.858 23.6702C211.457 23.2705 210.976 22.961 210.446 22.7626C209.916 22.5641 209.35 22.4812 208.785 22.5194C208.07 22.4383 207.352 22.6432 206.787 23.0893C206.222 23.5355 205.857 24.1869 205.77 24.9014C205.77 24.9705 205.77 25.028 205.77 25.097C205.734 25.5822 205.853 26.0663 206.11 26.4798C206.366 26.8933 206.747 27.2149 207.197 27.3985C207.588 27.594 207.996 27.7519 208.417 27.8703C209.027 28.0774 210.442 28.3766 210.442 29.3662C210.442 30.3558 209.556 30.655 208.728 30.655L208.67 30.5629ZM199.787 27.6171C198.325 27.6976 197.738 28.319 197.738 29.1706C197.738 30.0221 198.406 30.724 199.603 30.724C200.064 30.7106 200.516 30.584 200.917 30.3553C201.318 30.1265 201.657 29.8027 201.904 29.4122V27.4675L199.787 27.6171ZM201.869 26.3858V26.0291C201.891 25.506 201.705 24.9955 201.351 24.6095C200.998 24.2234 200.505 23.9932 199.982 23.9693C199.868 23.9579 199.752 23.9579 199.637 23.9693C198.682 23.9841 197.748 24.2543 196.933 24.7518L196.381 23.5321C197.408 22.9452 198.569 22.6321 199.752 22.623C200.291 22.5765 200.834 22.6437 201.345 22.8201C201.857 22.9965 202.325 23.2782 202.721 23.6471C203.081 24.0348 203.354 24.4954 203.521 24.9977C203.688 25.5 203.744 26.0323 203.688 26.5584V31.7827H201.927V30.632C201.582 31.0568 201.147 31.3999 200.654 31.6367C200.16 31.8735 199.621 31.998 199.073 32.0013C198.698 32.0344 198.32 31.993 197.961 31.8794C197.602 31.7659 197.27 31.5824 196.982 31.3396C196.694 31.0968 196.457 30.7995 196.285 30.4647C196.113 30.13 196.008 29.7645 195.978 29.3892C195.972 29.3318 195.972 29.274 195.978 29.2166C195.978 27.456 197.416 26.5584 199.499 26.4664L201.904 26.3743L201.869 26.3858ZM192.422 26.708V31.8057H194.24V26.4664C194.24 24.3261 193.619 22.6575 191.018 22.6575C190.455 22.6443 189.9 22.7867 189.412 23.0689C188.925 23.3511 188.525 23.7622 188.257 24.257V18.7221H186.415V31.7827H188.211V27.3409C188.211 25.5458 188.912 24.1189 190.512 24.1189C192.111 24.1189 192.365 25.4077 192.365 26.6965L192.422 26.708ZM180.8 28.3881C180.682 29.3102 180.838 30.2468 181.249 31.0807C181.456 31.3916 181.742 31.6417 182.078 31.8055C182.413 31.9693 182.786 32.0408 183.159 32.0128C183.726 32.0122 184.287 31.9068 184.816 31.7021L184.701 30.2522C184.409 30.3898 184.091 30.4606 183.769 30.4594C183.586 30.4808 183.4 30.4488 183.235 30.3671C183.069 30.2855 182.931 30.1576 182.837 29.9991C182.631 29.4765 182.556 28.9117 182.618 28.3536V24.28H184.77V22.8186H182.618V20.126H180.8V22.8186H179.511V24.2685H180.834V28.3766L180.8 28.3881ZM176.957 20.9775C177.184 20.9775 177.407 20.91 177.596 20.7836C177.785 20.6571 177.933 20.4774 178.02 20.2671C178.107 20.0569 178.13 19.8255 178.085 19.6023C178.041 19.3791 177.931 19.174 177.77 19.0131C177.609 18.8522 177.404 18.7426 177.181 18.6982C176.958 18.6538 176.726 18.6766 176.516 18.7637C176.306 18.8507 176.126 18.9982 176 19.1875C175.873 19.3767 175.806 19.5992 175.806 19.8268C175.806 20.132 175.927 20.4247 176.143 20.6405C176.359 20.8563 176.651 20.9775 176.957 20.9775ZM176.059 31.7942H177.877V22.7956H176.059V31.7827V31.7942ZM167.199 26.4664H172.446C172.443 25.7817 172.169 25.1261 171.683 24.643C171.198 24.16 170.541 23.8888 169.857 23.8888C169.165 23.8855 168.499 24.1536 168.002 24.6354C167.505 25.1172 167.217 25.7745 167.199 26.4664ZM165.346 27.2374C165.296 26.0556 165.716 24.9022 166.513 24.0289C167.311 23.1557 168.422 22.6337 169.604 22.577H169.949C171.037 22.5365 172.096 22.9295 172.894 23.6695C173.692 24.4096 174.164 25.4362 174.206 26.5239C174.206 26.6505 174.206 26.7656 174.206 26.8806C174.206 26.9957 174.206 27.41 174.206 27.6746H167.302C167.29 28.0374 167.349 28.3989 167.477 28.7387C167.604 29.0785 167.797 29.3898 168.045 29.6549C168.293 29.9199 168.591 30.1335 168.922 30.2834C169.252 30.4332 169.609 30.5165 169.972 30.5284H170.19C171.268 30.5078 172.312 30.1452 173.171 29.4928L173.919 30.5284C173.394 31.0245 172.773 31.4072 172.094 31.6527C171.415 31.8981 170.692 32.0012 169.972 31.9553C169.397 31.9753 168.825 31.8819 168.287 31.6804C167.748 31.4789 167.255 31.1733 166.835 30.7811C166.415 30.3889 166.077 29.9177 165.839 29.3946C165.601 28.8714 165.469 28.3065 165.449 27.7322C165.449 27.5711 165.449 27.3985 165.449 27.2374H165.346ZM161.618 27.2374C161.618 26.6684 161.449 26.1122 161.133 25.6391C160.817 25.166 160.367 24.7973 159.842 24.5796C159.316 24.3618 158.738 24.3049 158.18 24.4159C157.622 24.5269 157.109 24.8008 156.707 25.2032C156.304 25.6055 156.03 26.1181 155.919 26.6761C155.808 27.2342 155.865 27.8126 156.083 28.3383C156.301 28.8639 156.669 29.3132 157.143 29.6293C157.616 29.9454 158.172 30.1141 158.741 30.1141C159.504 30.1141 160.235 29.8111 160.775 29.2716C161.314 28.7321 161.618 28.0003 161.618 27.2374ZM161.618 31.7712V30.3558C161.276 30.8763 160.807 31.3008 160.255 31.5888C159.703 31.8769 159.087 32.0189 158.465 32.0013C157.888 32.0044 157.317 31.893 156.783 31.6738C156.25 31.4546 155.765 31.1317 155.358 30.724C154.95 30.3163 154.627 29.8318 154.408 29.2985C154.189 28.7652 154.077 28.1937 154.08 27.6171C154.08 27.4905 154.08 27.3639 154.08 27.2374C154.001 26.1034 154.372 24.984 155.113 24.1221C155.855 23.2603 156.906 22.7257 158.039 22.6345H158.407C159.012 22.609 159.613 22.7358 160.156 23.0032C160.699 23.2706 161.166 23.6701 161.514 24.165V18.7221H163.401V31.7942L161.618 31.7712ZM144.806 26.5239V31.7712H146.624V27.1108C146.624 25.4998 147.337 24.1189 148.776 24.1189C150.214 24.1189 150.421 25.4998 150.421 26.5469V31.7827H152.228V26.3398C152.228 24.3836 151.583 22.623 149.178 22.623C148.581 22.6168 147.993 22.7814 147.486 23.0973C146.978 23.4133 146.571 23.8675 146.313 24.4066C146.134 23.8523 145.773 23.3747 145.288 23.051C144.804 22.7274 144.224 22.5766 143.643 22.623C143.113 22.6244 142.593 22.7682 142.138 23.0395C141.682 23.3107 141.308 23.6995 141.054 24.165V22.7496H139.236V31.7367H141.054V27.1338C141.054 25.5228 141.768 24.1419 143.206 24.1419C144.645 24.1419 144.84 25.2927 144.84 26.57L144.806 26.5239ZM136.106 22.7496L133.483 29.7804L130.813 22.7956H128.88L132.47 31.6216L132.033 32.7723C131.642 33.8655 131.239 33.8309 130.882 33.8309C130.558 33.8199 130.238 33.7497 129.938 33.6238L129.582 35.0967C130.123 35.3129 130.702 35.4223 131.285 35.4189C132.286 35.4189 133.022 34.8896 133.655 33.3361L138.085 22.7726H136.21L136.106 22.7496ZM128.627 30.0566L127.833 28.7678C127.33 29.291 126.723 29.7028 126.051 29.9763C125.379 30.2499 124.657 30.3792 123.932 30.3558C123.306 30.3695 122.684 30.2599 122.101 30.0331C121.517 29.8063 120.984 29.4668 120.532 29.034C120.08 28.6012 119.718 28.0836 119.466 27.5108C119.214 26.9379 119.078 26.3211 119.064 25.6954C119.064 25.5458 119.064 25.4077 119.064 25.2581C119.019 24.637 119.096 24.0131 119.292 23.4218C119.488 22.8306 119.798 22.2838 120.205 21.8125C120.612 21.3413 121.108 20.9548 121.665 20.6753C122.221 20.3958 122.827 20.2287 123.448 20.1835H123.92C124.627 20.1709 125.328 20.3033 125.981 20.5724C126.634 20.8416 127.225 21.2419 127.718 21.7485L128.5 20.2756C127.523 19.4056 126.316 18.8359 125.023 18.6348C123.73 18.4337 122.407 18.6097 121.212 19.1417C120.017 19.6737 119.001 20.5391 118.285 21.6341C117.569 22.7292 117.185 24.0075 117.177 25.3157C117.099 27.0195 117.699 28.6848 118.847 29.9466C119.994 31.2084 121.595 31.9639 123.299 32.0473H123.863C124.752 32.0855 125.639 31.9291 126.462 31.5893C127.285 31.2495 128.023 30.7343 128.627 30.0796V30.0566ZM109.571 31.7827H111.366V18.7221H109.571V31.7827ZM105.348 29.4007V27.4675L103.242 27.6171C101.781 27.6976 101.194 28.319 101.194 29.1706C101.194 30.0221 101.861 30.724 103.046 30.724C103.509 30.7137 103.961 30.5883 104.363 30.3593C104.765 30.1303 105.103 29.8048 105.348 29.4122V29.4007ZM102.505 32.0013C102.13 32.0344 101.753 31.993 101.394 31.8794C101.035 31.7659 100.702 31.5824 100.414 31.3396C100.126 31.0968 99.8895 30.7995 99.7172 30.4647C99.5448 30.13 99.4405 29.7645 99.4101 29.3892C99.4044 29.3318 99.4044 29.274 99.4101 29.2166C99.4101 27.456 100.848 26.5584 102.931 26.4664L105.336 26.3743V26.0176C105.358 25.4945 105.172 24.984 104.818 24.598C104.464 24.2119 103.972 23.9817 103.449 23.9578C103.334 23.9464 103.219 23.9464 103.104 23.9578C102.146 23.9782 101.21 24.2479 100.388 24.7403L99.8473 23.5206C100.875 22.9336 102.036 22.6206 103.219 22.6115C103.758 22.5679 104.3 22.6363 104.811 22.8126C105.322 22.9889 105.79 23.2691 106.188 23.6356C106.548 24.0233 106.821 24.4839 106.988 24.9862C107.154 25.4885 107.211 26.0208 107.154 26.5469V31.7712H105.382V30.6205C105.035 31.0498 104.597 31.3965 104.1 31.6353C103.602 31.8742 103.057 31.9992 102.505 32.0013ZM97.1662 21.8635C97.1662 20.8394 97.3503 19.9418 98.547 19.9418C98.8946 19.9535 99.239 20.0115 99.5711 20.1145L99.6747 18.7681C99.1733 18.6075 98.6473 18.5374 98.1213 18.561C97.7105 18.5558 97.3038 18.6431 96.9313 18.8164C96.5588 18.9897 96.23 19.2445 95.9694 19.5621C95.5232 20.2434 95.3092 21.0507 95.3595 21.8635V22.7726H94.0707V24.2225H95.3595V31.7367H97.1662V24.2685H99.3065V22.8186H97.1662V21.8635ZM85.4404 27.2604C85.3916 28.0371 85.6533 28.8014 86.168 29.3851C86.6827 29.9689 87.4082 30.3242 88.1849 30.3731C88.9616 30.4219 89.7258 30.1602 90.3096 29.6455C90.8933 29.1308 91.2487 28.4053 91.2975 27.6286C91.309 27.5061 91.309 27.3829 91.2975 27.2604C91.3464 26.4837 91.0846 25.7194 90.57 25.1356C90.0553 24.5519 89.3298 24.1965 88.5531 24.1477C87.7764 24.0989 87.0121 24.3606 86.4283 24.8753C85.8446 25.39 85.4892 26.1154 85.4404 26.8922C85.4289 27.0146 85.4289 27.1379 85.4404 27.2604ZM83.6108 27.2604C83.595 26.3183 83.8589 25.3928 84.3691 24.6007C84.8793 23.8087 85.6129 23.1857 86.4771 22.8105C87.3414 22.4354 88.2975 22.3249 89.2245 22.4931C90.1515 22.6613 91.0079 23.1006 91.6852 23.7554C92.3626 24.4103 92.8306 25.2513 93.03 26.1721C93.2295 27.0929 93.1514 28.0522 92.8057 28.9286C92.46 29.8051 91.8621 30.5593 91.0878 31.096C90.3134 31.6327 89.3973 31.9277 88.4553 31.9438H88.3747C87.7702 31.9653 87.1673 31.8675 86.6006 31.6558C86.0339 31.4442 85.5145 31.1229 85.072 30.7104C84.6296 30.2979 84.2728 29.8022 84.0221 29.2517C83.7713 28.7011 83.6316 28.1066 83.6108 27.502V27.2604ZM69.5145 25.3157C69.4427 23.6089 70.0504 21.9433 71.2043 20.6837C72.3582 19.4241 73.9644 18.6732 75.6709 18.5955H76.1657C77.163 18.5527 78.1571 18.7377 79.0722 19.1364C79.9874 19.5352 80.7997 20.1373 81.4474 20.8969L80.1932 22.0477C79.7104 21.4482 79.0958 20.9681 78.3973 20.6448C77.6988 20.3215 76.9351 20.1637 76.1657 20.1835C73.473 20.1835 71.4132 22.1167 71.4132 25.3387C71.3629 25.9629 71.4361 26.5909 71.6286 27.1868C71.8212 27.7826 72.1294 28.3347 72.5355 28.8114C72.9416 29.288 73.4378 29.68 73.9955 29.9647C74.5532 30.2495 75.1617 30.4215 75.7859 30.4709H76.2807C78.9849 30.4709 79.9515 29.3202 79.9515 29.3202V26.3168H76.4303V24.8209H81.7006V29.9185C80.9841 30.6515 80.1173 31.2203 79.1597 31.5858C78.2022 31.9514 77.1768 32.1049 76.1542 32.0358C74.4377 32.0791 72.7743 31.4393 71.5294 30.2569C70.2844 29.0745 69.5597 27.4463 69.5145 25.7299C69.503 25.5918 69.5145 25.4538 69.5145 25.3157ZM53.8303 29.5848L32.5537 50.8615C26.4664 56.9603 21.7139 56.9603 15.6152 50.8615L5.89165 41.1265C7.59208 42.0506 9.49144 42.5482 11.4266 42.5764C12.2468 42.5743 13.0645 42.4856 13.8661 42.3117C17.1341 41.6213 20.4827 39.527 24.0844 35.9368L35.8792 24.165C39.7226 20.3101 43.0597 18.5265 46.3507 18.5265C49.6417 18.5265 52.9328 20.2871 56.8337 24.165L58.0534 25.3157L53.8303 29.5848ZM4.66038 38.1576C3.99297 37.6858 2.23238 36.1094 2.15183 34.5559C2.15183 34.4063 2.15183 32.8643 4.23462 30.7585L8.05499 26.8461C8.50735 26.391 9.04523 26.0299 9.63768 25.7835C10.2301 25.537 10.8655 25.4101 11.5071 25.4101C12.1488 25.4101 12.7841 25.537 13.3766 25.7835C13.969 26.0299 14.5069 26.391 14.9593 26.8461L22.692 34.5904C15.9604 41.3106 10.3564 42.4153 4.60285 38.1691L4.66038 38.1576ZM59.4228 24.0844L58.157 22.8186C53.9339 18.584 50.1711 16.6163 46.3507 16.6163C42.5303 16.6163 38.779 18.584 34.5214 22.7956L24.0729 33.2441L16.3401 25.4998C15.7086 24.8679 14.9587 24.3667 14.1334 24.0247C13.3081 23.6828 12.4235 23.5068 11.5301 23.5068C10.6368 23.5068 9.75218 23.6828 8.92687 24.0247C8.10155 24.3667 7.35171 24.8679 6.72016 25.4998L1.99073 30.2637C1.35888 30.8953 0.857655 31.6451 0.515684 32.4704C0.173713 33.2958 -0.00230026 34.1804 -0.00230026 35.0737C-0.00230026 35.9671 0.173713 36.8517 0.515684 37.677C0.857655 38.5023 1.35888 39.2521 1.99073 39.8837L14.2918 52.1848C17.744 55.6369 20.9084 57.34 24.0844 57.34C27.2604 57.34 30.4479 55.6139 33.8885 52.1848L55.1536 30.9081L59.4228 26.639C59.5901 26.4722 59.7229 26.2741 59.8135 26.0559C59.9041 25.8377 59.9508 25.6037 59.9508 25.3675C59.9508 25.1312 59.9041 24.8973 59.8135 24.6791C59.7229 24.4609 59.5901 24.2627 59.4228 24.0959V24.0844ZM24.0844 1.87566C25.9051 1.87566 27.685 2.41557 29.1988 3.4271C30.7127 4.43864 31.8926 5.87637 32.5894 7.55849C33.2861 9.24061 33.4684 11.0916 33.1132 12.8773C32.758 14.663 31.8813 16.3033 30.5938 17.5908C29.3064 18.8782 27.6661 19.755 25.8804 20.1102C24.0946 20.4654 22.2437 20.2831 20.5615 19.5863C18.8794 18.8896 17.4417 17.7096 16.4302 16.1958C15.4186 14.6819 14.8787 12.9021 14.8787 11.0814C14.8787 8.63986 15.8486 6.29835 17.575 4.57195C19.3014 2.84555 21.6429 1.87566 24.0844 1.87566ZM24.0844 22.2203C26.2829 22.2225 28.4327 21.5728 30.262 20.3533C32.0913 19.1338 33.5178 17.3992 34.3612 15.3689C35.2047 13.3386 35.4271 11.1038 35.0004 8.94707C34.5738 6.79036 33.5171 4.8086 31.9642 3.25241C30.4112 1.69622 28.4316 0.63548 26.2758 0.204339C24.12 -0.226801 21.8847 -0.00898432 19.8527 0.830247C17.8207 1.66948 16.0831 3.09243 14.8598 4.91916C13.6365 6.74589 12.9823 8.89436 12.98 11.0929C12.9785 12.5526 13.2645 13.9984 13.8218 15.3476C14.379 16.6968 15.1965 17.9231 16.2277 18.9564C17.2588 19.9896 18.4834 20.8097 19.8314 21.3697C21.1795 21.9297 22.6247 22.2187 24.0844 22.2203Z" fill="white"/>
</svg>
