<svg width="16" height="18" viewBox="0 0 16 18" fill="none" xmlns="http://www.w3.org/2000/svg">
<path d="M11.5342 12.2158L11.6808 12.3633L11.8292 12.2158C12.0033 12.0417 12.21 11.9036 12.4375 11.8094C12.665 11.7152 12.9088 11.6667 13.155 11.6667C13.4012 11.6667 13.645 11.7152 13.8725 11.8094C14.1 11.9036 14.3067 12.0417 14.4808 12.2158C14.6549 12.3899 14.7931 12.5966 14.8873 12.8241C14.9815 13.0516 15.03 13.2954 15.03 13.5417C15.03 13.7879 14.9815 14.0317 14.8873 14.2592C14.7931 14.4867 14.6549 14.6934 14.4808 14.8675L11.6808 17.6667L8.8825 14.8675C8.53087 14.5159 8.33332 14.039 8.33332 13.5417C8.33332 13.0444 8.53087 12.5675 8.8825 12.2158C9.23413 11.8642 9.71105 11.6667 10.2083 11.6667C10.7056 11.6667 11.1825 11.8642 11.5342 12.2158ZM6.66667 10.8333V12.5C5.34058 12.5 4.06881 13.0268 3.13113 13.9645C2.19345 14.9021 1.66667 16.1739 1.66667 17.5H0C2.00906e-05 15.768 0.674114 14.104 1.87956 12.8602C3.085 11.6165 4.72716 10.8908 6.45833 10.8367L6.66667 10.8333ZM6.66667 0C9.42917 0 11.6667 2.2375 11.6667 5C11.6671 6.29377 11.1659 7.53733 10.2684 8.46918C9.37091 9.40102 8.14705 9.94857 6.85417 9.99667L6.66667 10C3.90417 10 1.66667 7.7625 1.66667 5C1.6662 3.70623 2.16742 2.46267 3.06492 1.53082C3.96242 0.598976 5.18629 0.0514345 6.47917 0.00333329L6.66667 0ZM6.66667 1.66667C4.825 1.66667 3.33333 3.15833 3.33333 5C3.33333 6.84167 4.825 8.33333 6.66667 8.33333C8.50833 8.33333 10 6.84167 10 5C10 3.15833 8.50833 1.66667 6.66667 1.66667Z" fill="white"/>
</svg>
