<svg width="17" height="17" viewBox="0 0 17 17" fill="none" xmlns="http://www.w3.org/2000/svg">
<path d="M8.33333 16.6667C3.73083 16.6667 0 12.9358 0 8.33333C0 3.73083 3.73083 0 8.33333 0C12.9358 0 16.6667 3.73083 16.6667 8.33333C16.6667 12.9358 12.9358 16.6667 8.33333 16.6667ZM8.33333 15C10.1014 15 11.7971 14.2976 13.0474 13.0474C14.2976 11.7971 15 10.1014 15 8.33333C15 6.56522 14.2976 4.86953 13.0474 3.61929C11.7971 2.36905 10.1014 1.66667 8.33333 1.66667C6.56522 1.66667 4.86953 2.36905 3.61929 3.61929C2.36905 4.86953 1.66667 6.56522 1.66667 8.33333C1.66667 10.1014 2.36905 11.7971 3.61929 13.0474C4.86953 14.2976 6.56522 15 8.33333 15ZM7.5 4.16667H9.16667V5.83333H7.5V4.16667ZM7.5 7.5H9.16667V12.5H7.5V7.5Z" fill="white"/>
</svg>
