<svg width="14" height="19" viewBox="0 0 14 19" fill="none" xmlns="http://www.w3.org/2000/svg">
<path d="M9.585 15.4542C9.0337 16.7728 7.98527 17.8212 6.66667 18.3725C5.34807 17.8212 4.29963 16.7728 3.74833 15.4542H5.63167C5.90333 15.8617 6.25417 16.2142 6.66667 16.49C7.07917 16.215 7.43 15.8617 7.7025 15.4542H9.585ZM11.6667 11.125L13.3333 13.015V14.6208H0V13.015L1.66667 11.125V6.2875C1.66667 3.385 3.75333 0.915 6.66667 0C9.58 0.915 11.6667 3.385 11.6667 6.2875V11.125ZM11.0583 12.9542L10 11.7542V6.2875C10 4.35583 8.69167 2.59583 6.66667 1.77083C4.64167 2.59583 3.33333 4.355 3.33333 6.2875V11.7542L2.275 12.9542H11.0583ZM6.66667 7.95417C6.22464 7.95417 5.80072 7.77857 5.48816 7.46601C5.17559 7.15345 5 6.72953 5 6.2875C5 5.84547 5.17559 5.42155 5.48816 5.10899C5.80072 4.79643 6.22464 4.62083 6.66667 4.62083C7.10869 4.62083 7.53262 4.79643 7.84518 5.10899C8.15774 5.42155 8.33333 5.84547 8.33333 6.2875C8.33333 6.72953 8.15774 7.15345 7.84518 7.46601C7.53262 7.77857 7.10869 7.95417 6.66667 7.95417Z" fill="white"/>
</svg>
