<svg width="15" height="15" viewBox="0 0 15 15" fill="none" xmlns="http://www.w3.org/2000/svg">
<path d="M14.3896 13.1305L9.79365 8.52548C11.4207 6.23917 11.0236 3.08763 8.8812 1.27576C6.7388 -0.536102 3.56477 -0.403438 1.58067 1.58067C-0.403438 3.56477 -0.536102 6.73835 1.27576 8.8812C3.08763 11.024 6.23917 11.4207 8.52503 9.79365L13.121 14.3986L14.3896 13.1305ZM5.39552 9.00217C3.40872 9.00217 1.79787 7.39132 1.79787 5.40452C1.79787 3.41772 3.40872 1.80687 5.39552 1.80687C7.38233 1.80687 8.99317 3.41772 8.99317 5.40452C8.99317 7.39132 7.38233 9.00217 5.39552 9.00217Z" fill="white"/>
</svg>
