<svg width="14" height="18" viewBox="0 0 14 18" fill="none" xmlns="http://www.w3.org/2000/svg">
<path d="M0 17.5C0 15.7319 0.702379 14.0362 1.95262 12.786C3.20286 11.5357 4.89856 10.8333 6.66667 10.8333C8.43478 10.8333 10.1305 11.5357 11.3807 12.786C12.631 14.0362 13.3333 15.7319 13.3333 17.5H11.6667C11.6667 16.1739 11.1399 14.9021 10.2022 13.9645C9.26452 13.0268 7.99275 12.5 6.66667 12.5C5.34058 12.5 4.06881 13.0268 3.13113 13.9645C2.19345 14.9021 1.66667 16.1739 1.66667 17.5H0ZM6.66667 10C3.90417 10 1.66667 7.7625 1.66667 5C1.66667 2.2375 3.90417 0 6.66667 0C9.42917 0 11.6667 2.2375 11.6667 5C11.6667 7.7625 9.42917 10 6.66667 10ZM6.66667 8.33333C8.50833 8.33333 10 6.84167 10 5C10 3.15833 8.50833 1.66667 6.66667 1.66667C4.825 1.66667 3.33333 3.15833 3.33333 5C3.33333 6.84167 4.825 8.33333 6.66667 8.33333Z" fill="white"/>
</svg>
